%TF.GenerationSoftware,KiCad,Pcbnew,(5.1.8)-1*%
%TF.CreationDate,2020-12-24T12:29:03-03:00*%
%TF.ProjectId,christmasornament,63687269-7374-46d6-9173-6f726e616d65,rev?*%
%TF.SameCoordinates,Original*%
%TF.FileFunction,Soldermask,Top*%
%TF.FilePolarity,Negative*%
%FSLAX46Y46*%
G04 Gerber Fmt 4.6, Leading zero omitted, Abs format (unit mm)*
G04 Created by KiCad (PCBNEW (5.1.8)-1) date 2020-12-24 12:29:03*
%MOMM*%
%LPD*%
G01*
G04 APERTURE LIST*
%ADD10C,0.100000*%
%ADD11R,1.800000X1.800000*%
%ADD12C,1.800000*%
%ADD13C,2.500000*%
G04 APERTURE END LIST*
D10*
G36*
X49670000Y47430000D02*
G01*
X49020000Y52390000D01*
X48760000Y46170000D01*
X44570000Y40280000D01*
X44510000Y45460000D01*
X42950000Y38180000D01*
X36450000Y28460000D01*
X36370000Y28460000D01*
X36190000Y28450000D01*
X36010000Y28430000D01*
X35650000Y28350000D01*
X35210000Y28200000D01*
X34900000Y28040000D01*
X34660000Y27890000D01*
X34440000Y27720000D01*
X34560000Y27850000D01*
X34690000Y27990000D01*
X34850000Y28180000D01*
X35000000Y28380000D01*
X35270000Y28780000D01*
X35440000Y29070000D01*
X35550000Y29310000D01*
X35690000Y29670000D01*
X35780000Y30050000D01*
X35830000Y30500000D01*
X35830000Y30850000D01*
X35780000Y31300000D01*
X35680000Y31720000D01*
X35530000Y32100000D01*
X35370000Y32460000D01*
X35250000Y32690000D01*
X35120000Y32890000D01*
X35050000Y33430000D01*
X34950000Y33980000D01*
X34840000Y34560000D01*
X34740000Y35030000D01*
X34610000Y35550000D01*
X34490000Y35980000D01*
X34390000Y36370000D01*
X34290000Y36690000D01*
X34220000Y36940000D01*
X34120000Y37280000D01*
X34040000Y37540000D01*
X33870000Y38120000D01*
X33720000Y38590000D01*
X33580000Y39010000D01*
X33460000Y39360000D01*
X33390000Y39560000D01*
X33640000Y39600000D01*
X34060000Y39700000D01*
X34520000Y39830000D01*
X34970000Y40010000D01*
X35270000Y40160000D01*
X35690000Y40400000D01*
X36090000Y40710000D01*
X36450000Y41060000D01*
X36810000Y41500000D01*
X37090000Y41940000D01*
X37360000Y42460000D01*
X37590000Y43080000D01*
X37770000Y43660000D01*
X37940000Y44470000D01*
X38040000Y45170000D01*
X38120000Y45920000D01*
X38150000Y46500000D01*
X38170000Y47120000D01*
X38170000Y47810000D01*
X38150000Y48430000D01*
X38250000Y48450000D01*
X38890000Y48660000D01*
X39430000Y48850000D01*
X39980000Y49070000D01*
X40560000Y49320000D01*
X41020000Y49550000D01*
X41570000Y49850000D01*
X42100000Y50170000D01*
X42290000Y50310000D01*
X42680000Y50610000D01*
X43080000Y50940000D01*
X43500000Y51310000D01*
X44020000Y51870000D01*
X44340000Y52280000D01*
X44600000Y52680000D01*
X44780000Y52990000D01*
X44960000Y53380000D01*
X45150000Y53910000D01*
X45260000Y54430000D01*
X45290000Y54690000D01*
X45310000Y54980000D01*
X45310000Y55310000D01*
X45300000Y55580000D01*
X45280000Y55780000D01*
X45430000Y55780000D01*
X45710000Y55760000D01*
X46240000Y55760000D01*
X46820000Y55790000D01*
X47250000Y55840000D01*
X47580000Y55890000D01*
X47910000Y55960000D01*
X48220000Y56020000D01*
X48410000Y56070000D01*
X48750000Y56160000D01*
X49190000Y56300000D01*
X49650000Y56460000D01*
X50260000Y56720000D01*
X50870000Y57000000D01*
X51390000Y57270000D01*
X51910000Y57570000D01*
X52290000Y57790000D01*
X53150000Y58370000D01*
X53640000Y58730000D01*
X54230000Y59180000D01*
X54700000Y59570000D01*
X55180000Y59980000D01*
X55690000Y60430000D01*
X56170000Y60870000D01*
X56680000Y61370000D01*
X57190000Y61880000D01*
X57670000Y62380000D01*
X58130000Y62880000D01*
X58510000Y63290000D01*
X58970000Y63800000D01*
X59340000Y64230000D01*
X59600000Y64540000D01*
X60010000Y65030000D01*
X60090000Y65120000D01*
X60190000Y65240000D01*
X60280000Y65350000D01*
X60390000Y65490000D01*
X60440000Y65550000D01*
X60500000Y65620000D01*
X60580000Y65720000D01*
X60650000Y65800000D01*
X49670000Y47430000D01*
G37*
X49670000Y47430000D02*
X49020000Y52390000D01*
X48760000Y46170000D01*
X44570000Y40280000D01*
X44510000Y45460000D01*
X42950000Y38180000D01*
X36450000Y28460000D01*
X36370000Y28460000D01*
X36190000Y28450000D01*
X36010000Y28430000D01*
X35650000Y28350000D01*
X35210000Y28200000D01*
X34900000Y28040000D01*
X34660000Y27890000D01*
X34440000Y27720000D01*
X34560000Y27850000D01*
X34690000Y27990000D01*
X34850000Y28180000D01*
X35000000Y28380000D01*
X35270000Y28780000D01*
X35440000Y29070000D01*
X35550000Y29310000D01*
X35690000Y29670000D01*
X35780000Y30050000D01*
X35830000Y30500000D01*
X35830000Y30850000D01*
X35780000Y31300000D01*
X35680000Y31720000D01*
X35530000Y32100000D01*
X35370000Y32460000D01*
X35250000Y32690000D01*
X35120000Y32890000D01*
X35050000Y33430000D01*
X34950000Y33980000D01*
X34840000Y34560000D01*
X34740000Y35030000D01*
X34610000Y35550000D01*
X34490000Y35980000D01*
X34390000Y36370000D01*
X34290000Y36690000D01*
X34220000Y36940000D01*
X34120000Y37280000D01*
X34040000Y37540000D01*
X33870000Y38120000D01*
X33720000Y38590000D01*
X33580000Y39010000D01*
X33460000Y39360000D01*
X33390000Y39560000D01*
X33640000Y39600000D01*
X34060000Y39700000D01*
X34520000Y39830000D01*
X34970000Y40010000D01*
X35270000Y40160000D01*
X35690000Y40400000D01*
X36090000Y40710000D01*
X36450000Y41060000D01*
X36810000Y41500000D01*
X37090000Y41940000D01*
X37360000Y42460000D01*
X37590000Y43080000D01*
X37770000Y43660000D01*
X37940000Y44470000D01*
X38040000Y45170000D01*
X38120000Y45920000D01*
X38150000Y46500000D01*
X38170000Y47120000D01*
X38170000Y47810000D01*
X38150000Y48430000D01*
X38250000Y48450000D01*
X38890000Y48660000D01*
X39430000Y48850000D01*
X39980000Y49070000D01*
X40560000Y49320000D01*
X41020000Y49550000D01*
X41570000Y49850000D01*
X42100000Y50170000D01*
X42290000Y50310000D01*
X42680000Y50610000D01*
X43080000Y50940000D01*
X43500000Y51310000D01*
X44020000Y51870000D01*
X44340000Y52280000D01*
X44600000Y52680000D01*
X44780000Y52990000D01*
X44960000Y53380000D01*
X45150000Y53910000D01*
X45260000Y54430000D01*
X45290000Y54690000D01*
X45310000Y54980000D01*
X45310000Y55310000D01*
X45300000Y55580000D01*
X45280000Y55780000D01*
X45430000Y55780000D01*
X45710000Y55760000D01*
X46240000Y55760000D01*
X46820000Y55790000D01*
X47250000Y55840000D01*
X47580000Y55890000D01*
X47910000Y55960000D01*
X48220000Y56020000D01*
X48410000Y56070000D01*
X48750000Y56160000D01*
X49190000Y56300000D01*
X49650000Y56460000D01*
X50260000Y56720000D01*
X50870000Y57000000D01*
X51390000Y57270000D01*
X51910000Y57570000D01*
X52290000Y57790000D01*
X53150000Y58370000D01*
X53640000Y58730000D01*
X54230000Y59180000D01*
X54700000Y59570000D01*
X55180000Y59980000D01*
X55690000Y60430000D01*
X56170000Y60870000D01*
X56680000Y61370000D01*
X57190000Y61880000D01*
X57670000Y62380000D01*
X58130000Y62880000D01*
X58510000Y63290000D01*
X58970000Y63800000D01*
X59340000Y64230000D01*
X59600000Y64540000D01*
X60010000Y65030000D01*
X60090000Y65120000D01*
X60190000Y65240000D01*
X60280000Y65350000D01*
X60390000Y65490000D01*
X60440000Y65550000D01*
X60500000Y65620000D01*
X60580000Y65720000D01*
X60650000Y65800000D01*
X49670000Y47430000D01*
G36*
X33820000Y55460000D02*
G01*
X30580000Y59260000D01*
X33730000Y53880000D01*
X33360000Y46660000D01*
X30530000Y51040000D01*
X33050000Y44190000D01*
X32880000Y34350000D01*
X32710000Y34390000D01*
X32480000Y34430000D01*
X32230000Y34450000D01*
X31980000Y34450000D01*
X31700000Y34440000D01*
X31430000Y34400000D01*
X31210000Y34360000D01*
X31000000Y34300000D01*
X30740000Y34220000D01*
X30540000Y34140000D01*
X30370000Y34060000D01*
X30060000Y34450000D01*
X29040000Y35730000D01*
X27630000Y37140000D01*
X26310000Y38340000D01*
X24310000Y40130000D01*
X24520000Y40320000D01*
X24830000Y40630000D01*
X24990000Y40820000D01*
X25200000Y41050000D01*
X25390000Y41340000D01*
X25760000Y42010000D01*
X25960000Y42580000D01*
X26100000Y43240000D01*
X26140000Y43670000D01*
X26130000Y44250000D01*
X26050000Y44880000D01*
X25860000Y45720000D01*
X25580000Y46510000D01*
X25330000Y47070000D01*
X25010000Y47740000D01*
X24780000Y48150000D01*
X24450000Y48690000D01*
X24070000Y49280000D01*
X23870000Y49570000D01*
X23490000Y50130000D01*
X24110000Y50880000D01*
X24920000Y51940000D01*
X25500000Y52840000D01*
X25950000Y53650000D01*
X26280000Y54380000D01*
X26510000Y55060000D01*
X26660000Y55680000D01*
X26740000Y56150000D01*
X26770000Y56660000D01*
X26760000Y57180000D01*
X26710000Y57550000D01*
X26650000Y57890000D01*
X26560000Y58270000D01*
X26440000Y58620000D01*
X26290000Y58990000D01*
X26100000Y59380000D01*
X25910000Y59720000D01*
X25630000Y60130000D01*
X26600000Y60790000D01*
X27210000Y61290000D01*
X27820000Y61830000D01*
X28270000Y62300000D01*
X28900000Y63000000D01*
X29720000Y64120000D01*
X30450000Y65420000D01*
X30800000Y66160000D01*
X31120000Y66950000D01*
X31560000Y68190000D01*
X31920000Y69430000D01*
X32400000Y71590000D01*
X32760000Y73750000D01*
X32970000Y75240000D01*
X33000000Y75470000D01*
X33020000Y75640000D01*
X33040000Y75780000D01*
X33140000Y76580000D01*
X33160000Y76720000D01*
X33820000Y55460000D01*
G37*
X33820000Y55460000D02*
X30580000Y59260000D01*
X33730000Y53880000D01*
X33360000Y46660000D01*
X30530000Y51040000D01*
X33050000Y44190000D01*
X32880000Y34350000D01*
X32710000Y34390000D01*
X32480000Y34430000D01*
X32230000Y34450000D01*
X31980000Y34450000D01*
X31700000Y34440000D01*
X31430000Y34400000D01*
X31210000Y34360000D01*
X31000000Y34300000D01*
X30740000Y34220000D01*
X30540000Y34140000D01*
X30370000Y34060000D01*
X30060000Y34450000D01*
X29040000Y35730000D01*
X27630000Y37140000D01*
X26310000Y38340000D01*
X24310000Y40130000D01*
X24520000Y40320000D01*
X24830000Y40630000D01*
X24990000Y40820000D01*
X25200000Y41050000D01*
X25390000Y41340000D01*
X25760000Y42010000D01*
X25960000Y42580000D01*
X26100000Y43240000D01*
X26140000Y43670000D01*
X26130000Y44250000D01*
X26050000Y44880000D01*
X25860000Y45720000D01*
X25580000Y46510000D01*
X25330000Y47070000D01*
X25010000Y47740000D01*
X24780000Y48150000D01*
X24450000Y48690000D01*
X24070000Y49280000D01*
X23870000Y49570000D01*
X23490000Y50130000D01*
X24110000Y50880000D01*
X24920000Y51940000D01*
X25500000Y52840000D01*
X25950000Y53650000D01*
X26280000Y54380000D01*
X26510000Y55060000D01*
X26660000Y55680000D01*
X26740000Y56150000D01*
X26770000Y56660000D01*
X26760000Y57180000D01*
X26710000Y57550000D01*
X26650000Y57890000D01*
X26560000Y58270000D01*
X26440000Y58620000D01*
X26290000Y58990000D01*
X26100000Y59380000D01*
X25910000Y59720000D01*
X25630000Y60130000D01*
X26600000Y60790000D01*
X27210000Y61290000D01*
X27820000Y61830000D01*
X28270000Y62300000D01*
X28900000Y63000000D01*
X29720000Y64120000D01*
X30450000Y65420000D01*
X30800000Y66160000D01*
X31120000Y66950000D01*
X31560000Y68190000D01*
X31920000Y69430000D01*
X32400000Y71590000D01*
X32760000Y73750000D01*
X32970000Y75240000D01*
X33000000Y75470000D01*
X33020000Y75640000D01*
X33040000Y75780000D01*
X33140000Y76580000D01*
X33160000Y76720000D01*
X33820000Y55460000D01*
G36*
X55590000Y38410000D02*
G01*
X56260000Y38040000D01*
X56730000Y37800000D01*
X57320000Y37520000D01*
X57840000Y37290000D01*
X58610000Y37000000D01*
X59190000Y36820000D01*
X59660000Y36700000D01*
X60220000Y36590000D01*
X60780000Y36520000D01*
X61230000Y36500000D01*
X61630000Y36510000D01*
X62160000Y36560000D01*
X62770000Y36690000D01*
X63270000Y36860000D01*
X63640000Y37030000D01*
X63960000Y37210000D01*
X64280000Y37410000D01*
X64630000Y37690000D01*
X64890000Y37930000D01*
X65080000Y38120000D01*
X65280000Y38350000D01*
X65880000Y37770000D01*
X66120000Y37560000D01*
X66400000Y37310000D01*
X66640000Y37130000D01*
X67040000Y36810000D01*
X67340000Y36580000D01*
X67810000Y36270000D01*
X68220000Y36010000D01*
X68810000Y35670000D01*
X69450000Y35330000D01*
X70160000Y35010000D01*
X70960000Y34700000D01*
X71550000Y34510000D01*
X72240000Y34310000D01*
X72960000Y34140000D01*
X73810000Y33980000D01*
X74700000Y33850000D01*
X75260000Y33790000D01*
X76210000Y33720000D01*
X77010000Y33680000D01*
X77980000Y33660000D01*
X78980000Y33670000D01*
X80180000Y33700000D01*
X81110000Y33740000D01*
X82050000Y33780000D01*
X82480000Y33810000D01*
X83110000Y33840000D01*
X62140000Y29420000D01*
X65310000Y33260000D01*
X60600000Y29230000D01*
X53490000Y28350000D01*
X57200000Y31880000D01*
X50900000Y28140000D01*
X40070000Y26400000D01*
X39910000Y26720000D01*
X39810000Y26880000D01*
X39700000Y27040000D01*
X39590000Y27180000D01*
X39500000Y27290000D01*
X39360000Y27430000D01*
X39270000Y27510000D01*
X39200000Y27570000D01*
X39150000Y27610000D01*
X39110000Y27640000D01*
X39490000Y28020000D01*
X39750000Y28290000D01*
X40070000Y28610000D01*
X40420000Y28970000D01*
X40790000Y29360000D01*
X41310000Y29930000D01*
X41660000Y30330000D01*
X42010000Y30740000D01*
X42440000Y31280000D01*
X42850000Y31800000D01*
X43280000Y32380000D01*
X43660000Y32930000D01*
X44040000Y33520000D01*
X44320000Y33970000D01*
X44660000Y34560000D01*
X44930000Y35060000D01*
X45190000Y35560000D01*
X45330000Y35830000D01*
X45430000Y36050000D01*
X45900000Y35720000D01*
X46400000Y35400000D01*
X46760000Y35210000D01*
X47140000Y35050000D01*
X47420000Y34960000D01*
X47720000Y34890000D01*
X48100000Y34840000D01*
X48460000Y34830000D01*
X48770000Y34850000D01*
X49010000Y34880000D01*
X49440000Y34960000D01*
X49770000Y35050000D01*
X50210000Y35200000D01*
X50720000Y35390000D01*
X51220000Y35610000D01*
X51600000Y35800000D01*
X52110000Y36080000D01*
X52530000Y36350000D01*
X52860000Y36580000D01*
X53170000Y36810000D01*
X53530000Y37100000D01*
X53840000Y37370000D01*
X54220000Y37730000D01*
X54540000Y38060000D01*
X54810000Y38350000D01*
X55100000Y38700000D01*
X55590000Y38410000D01*
G37*
X55590000Y38410000D02*
X56260000Y38040000D01*
X56730000Y37800000D01*
X57320000Y37520000D01*
X57840000Y37290000D01*
X58610000Y37000000D01*
X59190000Y36820000D01*
X59660000Y36700000D01*
X60220000Y36590000D01*
X60780000Y36520000D01*
X61230000Y36500000D01*
X61630000Y36510000D01*
X62160000Y36560000D01*
X62770000Y36690000D01*
X63270000Y36860000D01*
X63640000Y37030000D01*
X63960000Y37210000D01*
X64280000Y37410000D01*
X64630000Y37690000D01*
X64890000Y37930000D01*
X65080000Y38120000D01*
X65280000Y38350000D01*
X65880000Y37770000D01*
X66120000Y37560000D01*
X66400000Y37310000D01*
X66640000Y37130000D01*
X67040000Y36810000D01*
X67340000Y36580000D01*
X67810000Y36270000D01*
X68220000Y36010000D01*
X68810000Y35670000D01*
X69450000Y35330000D01*
X70160000Y35010000D01*
X70960000Y34700000D01*
X71550000Y34510000D01*
X72240000Y34310000D01*
X72960000Y34140000D01*
X73810000Y33980000D01*
X74700000Y33850000D01*
X75260000Y33790000D01*
X76210000Y33720000D01*
X77010000Y33680000D01*
X77980000Y33660000D01*
X78980000Y33670000D01*
X80180000Y33700000D01*
X81110000Y33740000D01*
X82050000Y33780000D01*
X82480000Y33810000D01*
X83110000Y33840000D01*
X62140000Y29420000D01*
X65310000Y33260000D01*
X60600000Y29230000D01*
X53490000Y28350000D01*
X57200000Y31880000D01*
X50900000Y28140000D01*
X40070000Y26400000D01*
X39910000Y26720000D01*
X39810000Y26880000D01*
X39700000Y27040000D01*
X39590000Y27180000D01*
X39500000Y27290000D01*
X39360000Y27430000D01*
X39270000Y27510000D01*
X39200000Y27570000D01*
X39150000Y27610000D01*
X39110000Y27640000D01*
X39490000Y28020000D01*
X39750000Y28290000D01*
X40070000Y28610000D01*
X40420000Y28970000D01*
X40790000Y29360000D01*
X41310000Y29930000D01*
X41660000Y30330000D01*
X42010000Y30740000D01*
X42440000Y31280000D01*
X42850000Y31800000D01*
X43280000Y32380000D01*
X43660000Y32930000D01*
X44040000Y33520000D01*
X44320000Y33970000D01*
X44660000Y34560000D01*
X44930000Y35060000D01*
X45190000Y35560000D01*
X45330000Y35830000D01*
X45430000Y36050000D01*
X45900000Y35720000D01*
X46400000Y35400000D01*
X46760000Y35210000D01*
X47140000Y35050000D01*
X47420000Y34960000D01*
X47720000Y34890000D01*
X48100000Y34840000D01*
X48460000Y34830000D01*
X48770000Y34850000D01*
X49010000Y34880000D01*
X49440000Y34960000D01*
X49770000Y35050000D01*
X50210000Y35200000D01*
X50720000Y35390000D01*
X51220000Y35610000D01*
X51600000Y35800000D01*
X52110000Y36080000D01*
X52530000Y36350000D01*
X52860000Y36580000D01*
X53170000Y36810000D01*
X53530000Y37100000D01*
X53840000Y37370000D01*
X54220000Y37730000D01*
X54540000Y38060000D01*
X54810000Y38350000D01*
X55100000Y38700000D01*
X55590000Y38410000D01*
D11*
%TO.C,D3*%
X30550000Y30610000D03*
D12*
X33090000Y30610000D03*
%TD*%
%TO.C,D1*%
X30510000Y23690000D03*
D11*
X27970000Y23690000D03*
%TD*%
%TO.C,D2*%
X35460000Y24740000D03*
D12*
X38000000Y24740000D03*
%TD*%
D13*
%TO.C,H1*%
X34210000Y66920000D03*
%TD*%
M02*
