%TF.GenerationSoftware,KiCad,Pcbnew,(5.1.8)-1*%
%TF.CreationDate,2020-12-24T12:29:03-03:00*%
%TF.ProjectId,christmasornament,63687269-7374-46d6-9173-6f726e616d65,rev?*%
%TF.SameCoordinates,Original*%
%TF.FileFunction,Copper,L2,Bot*%
%TF.FilePolarity,Positive*%
%FSLAX46Y46*%
G04 Gerber Fmt 4.6, Leading zero omitted, Abs format (unit mm)*
G04 Created by KiCad (PCBNEW (5.1.8)-1) date 2020-12-24 12:29:03*
%MOMM*%
%LPD*%
G01*
G04 APERTURE LIST*
%TA.AperFunction,ComponentPad*%
%ADD10R,1.800000X1.800000*%
%TD*%
%TA.AperFunction,ComponentPad*%
%ADD11C,1.800000*%
%TD*%
%TA.AperFunction,SMDPad,CuDef*%
%ADD12C,0.100000*%
%TD*%
%TA.AperFunction,SMDPad,CuDef*%
%ADD13C,10.200000*%
%TD*%
%TA.AperFunction,Conductor*%
%ADD14C,0.400000*%
%TD*%
G04 APERTURE END LIST*
D10*
%TO.P,D3,1*%
%TO.N,GND*%
X30550000Y30610000D03*
D11*
%TO.P,D3,2*%
%TO.N,Net-(D3-Pad2)*%
X33090000Y30610000D03*
%TD*%
%TO.P,D1,2*%
%TO.N,Net-(D1-Pad2)*%
X30510000Y23690000D03*
D10*
%TO.P,D1,1*%
%TO.N,GND*%
X27970000Y23690000D03*
%TD*%
%TO.P,D2,1*%
%TO.N,GND*%
X35460000Y24740000D03*
D11*
%TO.P,D2,2*%
%TO.N,Net-(D2-Pad2)*%
X38000000Y24740000D03*
%TD*%
%TO.P,R1,1*%
%TO.N,Net-(D1-Pad2)*%
%TA.AperFunction,SMDPad,CuDef*%
G36*
G01*
X44578249Y24079340D02*
X44189340Y24468249D01*
G75*
G02*
X44189340Y24751091I141421J141421D01*
G01*
X44472183Y25033934D01*
G75*
G02*
X44755025Y25033934I141421J-141421D01*
G01*
X45143934Y24645025D01*
G75*
G02*
X45143934Y24362183I-141421J-141421D01*
G01*
X44861091Y24079340D01*
G75*
G02*
X44578249Y24079340I-141421J141421D01*
G01*
G37*
%TD.AperFunction*%
%TO.P,R1,2*%
%TO.N,VCC*%
%TA.AperFunction,SMDPad,CuDef*%
G36*
G01*
X45744975Y25246066D02*
X45356066Y25634975D01*
G75*
G02*
X45356066Y25917817I141421J141421D01*
G01*
X45638909Y26200660D01*
G75*
G02*
X45921751Y26200660I141421J-141421D01*
G01*
X46310660Y25811751D01*
G75*
G02*
X46310660Y25528909I-141421J-141421D01*
G01*
X46027817Y25246066D01*
G75*
G02*
X45744975Y25246066I-141421J141421D01*
G01*
G37*
%TD.AperFunction*%
%TD*%
%TO.P,R2,1*%
%TO.N,Net-(D2-Pad2)*%
%TA.AperFunction,SMDPad,CuDef*%
G36*
G01*
X44578249Y25929340D02*
X44189340Y26318249D01*
G75*
G02*
X44189340Y26601091I141421J141421D01*
G01*
X44472183Y26883934D01*
G75*
G02*
X44755025Y26883934I141421J-141421D01*
G01*
X45143934Y26495025D01*
G75*
G02*
X45143934Y26212183I-141421J-141421D01*
G01*
X44861091Y25929340D01*
G75*
G02*
X44578249Y25929340I-141421J141421D01*
G01*
G37*
%TD.AperFunction*%
%TO.P,R2,2*%
%TO.N,VCC*%
%TA.AperFunction,SMDPad,CuDef*%
G36*
G01*
X45744975Y27096066D02*
X45356066Y27484975D01*
G75*
G02*
X45356066Y27767817I141421J141421D01*
G01*
X45638909Y28050660D01*
G75*
G02*
X45921751Y28050660I141421J-141421D01*
G01*
X46310660Y27661751D01*
G75*
G02*
X46310660Y27378909I-141421J-141421D01*
G01*
X46027817Y27096066D01*
G75*
G02*
X45744975Y27096066I-141421J141421D01*
G01*
G37*
%TD.AperFunction*%
%TD*%
%TO.P,R3,2*%
%TO.N,VCC*%
%TA.AperFunction,SMDPad,CuDef*%
G36*
G01*
X45744975Y29229429D02*
X45356066Y29618338D01*
G75*
G02*
X45356066Y29901180I141421J141421D01*
G01*
X45638909Y30184023D01*
G75*
G02*
X45921751Y30184023I141421J-141421D01*
G01*
X46310660Y29795114D01*
G75*
G02*
X46310660Y29512272I-141421J-141421D01*
G01*
X46027817Y29229429D01*
G75*
G02*
X45744975Y29229429I-141421J141421D01*
G01*
G37*
%TD.AperFunction*%
%TO.P,R3,1*%
%TO.N,Net-(D3-Pad2)*%
%TA.AperFunction,SMDPad,CuDef*%
G36*
G01*
X44578249Y28062703D02*
X44189340Y28451612D01*
G75*
G02*
X44189340Y28734454I141421J141421D01*
G01*
X44472183Y29017297D01*
G75*
G02*
X44755025Y29017297I141421J-141421D01*
G01*
X45143934Y28628388D01*
G75*
G02*
X45143934Y28345546I-141421J-141421D01*
G01*
X44861091Y28062703D01*
G75*
G02*
X44578249Y28062703I-141421J141421D01*
G01*
G37*
%TD.AperFunction*%
%TD*%
%TA.AperFunction,SMDPad,CuDef*%
D12*
%TO.P,BT1,1*%
%TO.N,VCC*%
G36*
X34409693Y43906855D02*
G01*
X36743145Y46240307D01*
X39218019Y43765433D01*
X36884567Y41431981D01*
X34409693Y43906855D01*
G37*
%TD.AperFunction*%
%TA.AperFunction,SMDPad,CuDef*%
G36*
X45581981Y32734567D02*
G01*
X47915433Y35068019D01*
X50390307Y32593145D01*
X48056855Y30259693D01*
X45581981Y32734567D01*
G37*
%TD.AperFunction*%
D13*
%TO.P,BT1,2*%
%TO.N,GND*%
X42400000Y38250000D03*
%TD*%
D14*
%TO.N,GND*%
X30550000Y29650000D02*
X35460000Y24740000D01*
X30550000Y30610000D02*
X30550000Y29650000D01*
X33739295Y26460705D02*
X35460000Y24740000D01*
X30740705Y26460705D02*
X33739295Y26460705D01*
X27970000Y23690000D02*
X30740705Y26460705D01*
X38190000Y38250000D02*
X30550000Y30610000D01*
X42400000Y38250000D02*
X38190000Y38250000D01*
%TO.N,Net-(D1-Pad2)*%
X31409999Y24589999D02*
X30510000Y23690000D01*
X32880186Y24589999D02*
X31409999Y24589999D01*
X34120185Y23350000D02*
X32880186Y24589999D01*
X38871996Y23687994D02*
X38534002Y23350000D01*
X43797994Y23687994D02*
X38871996Y23687994D01*
X38534002Y23350000D02*
X34120185Y23350000D01*
X44666637Y24556637D02*
X43797994Y23687994D01*
%TO.N,Net-(D2-Pad2)*%
X43000000Y24740000D02*
X44666637Y26406637D01*
X38000000Y24740000D02*
X43000000Y24740000D01*
%TO.N,Net-(D3-Pad2)*%
X42596637Y30610000D02*
X44666637Y28540000D01*
X33090000Y30610000D02*
X42596637Y30610000D01*
%TO.N,VCC*%
X47986144Y31859507D02*
X45833363Y29706726D01*
X47986144Y32663856D02*
X47986144Y31859507D01*
X45833363Y29706726D02*
X45833363Y27573363D01*
X45833363Y27573363D02*
X45833363Y25723363D01*
X47986144Y40803858D02*
X47986144Y32663856D01*
X44953858Y43836144D02*
X47986144Y40803858D01*
X36813856Y43836144D02*
X44953858Y43836144D01*
%TD*%
M02*
