%TF.GenerationSoftware,KiCad,Pcbnew,(5.1.8)-1*%
%TF.CreationDate,2020-12-24T12:29:03-03:00*%
%TF.ProjectId,christmasornament,63687269-7374-46d6-9173-6f726e616d65,rev?*%
%TF.SameCoordinates,Original*%
%TF.FileFunction,Copper,L1,Top*%
%TF.FilePolarity,Positive*%
%FSLAX46Y46*%
G04 Gerber Fmt 4.6, Leading zero omitted, Abs format (unit mm)*
G04 Created by KiCad (PCBNEW (5.1.8)-1) date 2020-12-24 12:29:03*
%MOMM*%
%LPD*%
G01*
G04 APERTURE LIST*
%TA.AperFunction,NonConductor*%
%ADD10C,0.100000*%
%TD*%
%TA.AperFunction,ComponentPad*%
%ADD11R,1.800000X1.800000*%
%TD*%
%TA.AperFunction,ComponentPad*%
%ADD12C,1.800000*%
%TD*%
G04 APERTURE END LIST*
D10*
G36*
X33740000Y55540000D02*
G01*
X30500000Y59340000D01*
X33650000Y53960000D01*
X33280000Y46740000D01*
X30450000Y51120000D01*
X32970000Y44270000D01*
X32800000Y34430000D01*
X32630000Y34470000D01*
X32400000Y34510000D01*
X32150000Y34530000D01*
X31900000Y34530000D01*
X31620000Y34520000D01*
X31350000Y34480000D01*
X31130000Y34440000D01*
X30920000Y34380000D01*
X30660000Y34300000D01*
X30460000Y34220000D01*
X30290000Y34140000D01*
X29980000Y34530000D01*
X28960000Y35810000D01*
X27550000Y37220000D01*
X26230000Y38420000D01*
X24230000Y40210000D01*
X24440000Y40400000D01*
X24750000Y40710000D01*
X24910000Y40900000D01*
X25120000Y41130000D01*
X25310000Y41420000D01*
X25680000Y42090000D01*
X25880000Y42660000D01*
X26020000Y43320000D01*
X26060000Y43750000D01*
X26050000Y44330000D01*
X25970000Y44960000D01*
X25780000Y45800000D01*
X25500000Y46590000D01*
X25250000Y47150000D01*
X24930000Y47820000D01*
X24700000Y48230000D01*
X24370000Y48770000D01*
X23990000Y49360000D01*
X23790000Y49650000D01*
X23410000Y50210000D01*
X24030000Y50960000D01*
X24840000Y52020000D01*
X25420000Y52920000D01*
X25870000Y53730000D01*
X26200000Y54460000D01*
X26430000Y55140000D01*
X26580000Y55760000D01*
X26660000Y56230000D01*
X26690000Y56740000D01*
X26680000Y57260000D01*
X26630000Y57630000D01*
X26570000Y57970000D01*
X26480000Y58350000D01*
X26360000Y58700000D01*
X26210000Y59070000D01*
X26020000Y59460000D01*
X25830000Y59800000D01*
X25550000Y60210000D01*
X26520000Y60870000D01*
X27130000Y61370000D01*
X27740000Y61910000D01*
X28190000Y62380000D01*
X28820000Y63080000D01*
X29640000Y64200000D01*
X30370000Y65500000D01*
X30720000Y66240000D01*
X31040000Y67030000D01*
X31480000Y68270000D01*
X31840000Y69510000D01*
X32320000Y71670000D01*
X32680000Y73830000D01*
X32890000Y75320000D01*
X32920000Y75550000D01*
X32940000Y75720000D01*
X32960000Y75860000D01*
X33060000Y76660000D01*
X33080000Y76800000D01*
X33740000Y55540000D01*
G37*
X33740000Y55540000D02*
X30500000Y59340000D01*
X33650000Y53960000D01*
X33280000Y46740000D01*
X30450000Y51120000D01*
X32970000Y44270000D01*
X32800000Y34430000D01*
X32630000Y34470000D01*
X32400000Y34510000D01*
X32150000Y34530000D01*
X31900000Y34530000D01*
X31620000Y34520000D01*
X31350000Y34480000D01*
X31130000Y34440000D01*
X30920000Y34380000D01*
X30660000Y34300000D01*
X30460000Y34220000D01*
X30290000Y34140000D01*
X29980000Y34530000D01*
X28960000Y35810000D01*
X27550000Y37220000D01*
X26230000Y38420000D01*
X24230000Y40210000D01*
X24440000Y40400000D01*
X24750000Y40710000D01*
X24910000Y40900000D01*
X25120000Y41130000D01*
X25310000Y41420000D01*
X25680000Y42090000D01*
X25880000Y42660000D01*
X26020000Y43320000D01*
X26060000Y43750000D01*
X26050000Y44330000D01*
X25970000Y44960000D01*
X25780000Y45800000D01*
X25500000Y46590000D01*
X25250000Y47150000D01*
X24930000Y47820000D01*
X24700000Y48230000D01*
X24370000Y48770000D01*
X23990000Y49360000D01*
X23790000Y49650000D01*
X23410000Y50210000D01*
X24030000Y50960000D01*
X24840000Y52020000D01*
X25420000Y52920000D01*
X25870000Y53730000D01*
X26200000Y54460000D01*
X26430000Y55140000D01*
X26580000Y55760000D01*
X26660000Y56230000D01*
X26690000Y56740000D01*
X26680000Y57260000D01*
X26630000Y57630000D01*
X26570000Y57970000D01*
X26480000Y58350000D01*
X26360000Y58700000D01*
X26210000Y59070000D01*
X26020000Y59460000D01*
X25830000Y59800000D01*
X25550000Y60210000D01*
X26520000Y60870000D01*
X27130000Y61370000D01*
X27740000Y61910000D01*
X28190000Y62380000D01*
X28820000Y63080000D01*
X29640000Y64200000D01*
X30370000Y65500000D01*
X30720000Y66240000D01*
X31040000Y67030000D01*
X31480000Y68270000D01*
X31840000Y69510000D01*
X32320000Y71670000D01*
X32680000Y73830000D01*
X32890000Y75320000D01*
X32920000Y75550000D01*
X32940000Y75720000D01*
X32960000Y75860000D01*
X33060000Y76660000D01*
X33080000Y76800000D01*
X33740000Y55540000D01*
G36*
X49580000Y47520000D02*
G01*
X48930000Y52480000D01*
X48670000Y46260000D01*
X44480000Y40370000D01*
X44420000Y45550000D01*
X42860000Y38270000D01*
X36360000Y28550000D01*
X36280000Y28550000D01*
X36100000Y28540000D01*
X35920000Y28520000D01*
X35560000Y28440000D01*
X35120000Y28290000D01*
X34810000Y28130000D01*
X34570000Y27980000D01*
X34350000Y27810000D01*
X34470000Y27940000D01*
X34600000Y28080000D01*
X34760000Y28270000D01*
X34910000Y28470000D01*
X35180000Y28870000D01*
X35350000Y29160000D01*
X35460000Y29400000D01*
X35600000Y29760000D01*
X35690000Y30140000D01*
X35740000Y30590000D01*
X35740000Y30940000D01*
X35690000Y31390000D01*
X35590000Y31810000D01*
X35440000Y32190000D01*
X35280000Y32550000D01*
X35160000Y32780000D01*
X35030000Y32980000D01*
X34960000Y33520000D01*
X34860000Y34070000D01*
X34750000Y34650000D01*
X34650000Y35120000D01*
X34520000Y35640000D01*
X34400000Y36070000D01*
X34300000Y36460000D01*
X34200000Y36780000D01*
X34130000Y37030000D01*
X34030000Y37370000D01*
X33950000Y37630000D01*
X33780000Y38210000D01*
X33630000Y38680000D01*
X33490000Y39100000D01*
X33370000Y39450000D01*
X33300000Y39650000D01*
X33550000Y39690000D01*
X33970000Y39790000D01*
X34430000Y39920000D01*
X34880000Y40100000D01*
X35180000Y40250000D01*
X35600000Y40490000D01*
X36000000Y40800000D01*
X36360000Y41150000D01*
X36720000Y41590000D01*
X37000000Y42030000D01*
X37270000Y42550000D01*
X37500000Y43170000D01*
X37680000Y43750000D01*
X37850000Y44560000D01*
X37950000Y45260000D01*
X38030000Y46010000D01*
X38060000Y46590000D01*
X38080000Y47210000D01*
X38080000Y47900000D01*
X38060000Y48520000D01*
X38160000Y48540000D01*
X38800000Y48750000D01*
X39340000Y48940000D01*
X39890000Y49160000D01*
X40470000Y49410000D01*
X40930000Y49640000D01*
X41480000Y49940000D01*
X42010000Y50260000D01*
X42200000Y50400000D01*
X42590000Y50700000D01*
X42990000Y51030000D01*
X43410000Y51400000D01*
X43930000Y51960000D01*
X44250000Y52370000D01*
X44510000Y52770000D01*
X44690000Y53080000D01*
X44870000Y53470000D01*
X45060000Y54000000D01*
X45170000Y54520000D01*
X45200000Y54780000D01*
X45220000Y55070000D01*
X45220000Y55400000D01*
X45210000Y55670000D01*
X45190000Y55870000D01*
X45340000Y55870000D01*
X45620000Y55850000D01*
X46150000Y55850000D01*
X46730000Y55880000D01*
X47160000Y55930000D01*
X47490000Y55980000D01*
X47820000Y56050000D01*
X48130000Y56110000D01*
X48320000Y56160000D01*
X48660000Y56250000D01*
X49100000Y56390000D01*
X49560000Y56550000D01*
X50170000Y56810000D01*
X50780000Y57090000D01*
X51300000Y57360000D01*
X51820000Y57660000D01*
X52200000Y57880000D01*
X53060000Y58460000D01*
X53550000Y58820000D01*
X54140000Y59270000D01*
X54610000Y59660000D01*
X55090000Y60070000D01*
X55600000Y60520000D01*
X56080000Y60960000D01*
X56590000Y61460000D01*
X57100000Y61970000D01*
X57580000Y62470000D01*
X58040000Y62970000D01*
X58420000Y63380000D01*
X58880000Y63890000D01*
X59250000Y64320000D01*
X59510000Y64630000D01*
X59920000Y65120000D01*
X60000000Y65210000D01*
X60100000Y65330000D01*
X60190000Y65440000D01*
X60300000Y65580000D01*
X60350000Y65640000D01*
X60410000Y65710000D01*
X60490000Y65810000D01*
X60560000Y65890000D01*
X49580000Y47520000D01*
G37*
X49580000Y47520000D02*
X48930000Y52480000D01*
X48670000Y46260000D01*
X44480000Y40370000D01*
X44420000Y45550000D01*
X42860000Y38270000D01*
X36360000Y28550000D01*
X36280000Y28550000D01*
X36100000Y28540000D01*
X35920000Y28520000D01*
X35560000Y28440000D01*
X35120000Y28290000D01*
X34810000Y28130000D01*
X34570000Y27980000D01*
X34350000Y27810000D01*
X34470000Y27940000D01*
X34600000Y28080000D01*
X34760000Y28270000D01*
X34910000Y28470000D01*
X35180000Y28870000D01*
X35350000Y29160000D01*
X35460000Y29400000D01*
X35600000Y29760000D01*
X35690000Y30140000D01*
X35740000Y30590000D01*
X35740000Y30940000D01*
X35690000Y31390000D01*
X35590000Y31810000D01*
X35440000Y32190000D01*
X35280000Y32550000D01*
X35160000Y32780000D01*
X35030000Y32980000D01*
X34960000Y33520000D01*
X34860000Y34070000D01*
X34750000Y34650000D01*
X34650000Y35120000D01*
X34520000Y35640000D01*
X34400000Y36070000D01*
X34300000Y36460000D01*
X34200000Y36780000D01*
X34130000Y37030000D01*
X34030000Y37370000D01*
X33950000Y37630000D01*
X33780000Y38210000D01*
X33630000Y38680000D01*
X33490000Y39100000D01*
X33370000Y39450000D01*
X33300000Y39650000D01*
X33550000Y39690000D01*
X33970000Y39790000D01*
X34430000Y39920000D01*
X34880000Y40100000D01*
X35180000Y40250000D01*
X35600000Y40490000D01*
X36000000Y40800000D01*
X36360000Y41150000D01*
X36720000Y41590000D01*
X37000000Y42030000D01*
X37270000Y42550000D01*
X37500000Y43170000D01*
X37680000Y43750000D01*
X37850000Y44560000D01*
X37950000Y45260000D01*
X38030000Y46010000D01*
X38060000Y46590000D01*
X38080000Y47210000D01*
X38080000Y47900000D01*
X38060000Y48520000D01*
X38160000Y48540000D01*
X38800000Y48750000D01*
X39340000Y48940000D01*
X39890000Y49160000D01*
X40470000Y49410000D01*
X40930000Y49640000D01*
X41480000Y49940000D01*
X42010000Y50260000D01*
X42200000Y50400000D01*
X42590000Y50700000D01*
X42990000Y51030000D01*
X43410000Y51400000D01*
X43930000Y51960000D01*
X44250000Y52370000D01*
X44510000Y52770000D01*
X44690000Y53080000D01*
X44870000Y53470000D01*
X45060000Y54000000D01*
X45170000Y54520000D01*
X45200000Y54780000D01*
X45220000Y55070000D01*
X45220000Y55400000D01*
X45210000Y55670000D01*
X45190000Y55870000D01*
X45340000Y55870000D01*
X45620000Y55850000D01*
X46150000Y55850000D01*
X46730000Y55880000D01*
X47160000Y55930000D01*
X47490000Y55980000D01*
X47820000Y56050000D01*
X48130000Y56110000D01*
X48320000Y56160000D01*
X48660000Y56250000D01*
X49100000Y56390000D01*
X49560000Y56550000D01*
X50170000Y56810000D01*
X50780000Y57090000D01*
X51300000Y57360000D01*
X51820000Y57660000D01*
X52200000Y57880000D01*
X53060000Y58460000D01*
X53550000Y58820000D01*
X54140000Y59270000D01*
X54610000Y59660000D01*
X55090000Y60070000D01*
X55600000Y60520000D01*
X56080000Y60960000D01*
X56590000Y61460000D01*
X57100000Y61970000D01*
X57580000Y62470000D01*
X58040000Y62970000D01*
X58420000Y63380000D01*
X58880000Y63890000D01*
X59250000Y64320000D01*
X59510000Y64630000D01*
X59920000Y65120000D01*
X60000000Y65210000D01*
X60100000Y65330000D01*
X60190000Y65440000D01*
X60300000Y65580000D01*
X60350000Y65640000D01*
X60410000Y65710000D01*
X60490000Y65810000D01*
X60560000Y65890000D01*
X49580000Y47520000D01*
G36*
X55560000Y38440000D02*
G01*
X56230000Y38070000D01*
X56700000Y37830000D01*
X57290000Y37550000D01*
X57810000Y37320000D01*
X58580000Y37030000D01*
X59160000Y36850000D01*
X59630000Y36730000D01*
X60190000Y36620000D01*
X60750000Y36550000D01*
X61200000Y36530000D01*
X61600000Y36540000D01*
X62130000Y36590000D01*
X62740000Y36720000D01*
X63240000Y36890000D01*
X63610000Y37060000D01*
X63930000Y37240000D01*
X64250000Y37440000D01*
X64600000Y37720000D01*
X64860000Y37960000D01*
X65050000Y38150000D01*
X65250000Y38380000D01*
X65850000Y37800000D01*
X66090000Y37590000D01*
X66370000Y37340000D01*
X66610000Y37160000D01*
X67010000Y36840000D01*
X67310000Y36610000D01*
X67780000Y36300000D01*
X68190000Y36040000D01*
X68780000Y35700000D01*
X69420000Y35360000D01*
X70130000Y35040000D01*
X70930000Y34730000D01*
X71520000Y34540000D01*
X72210000Y34340000D01*
X72930000Y34170000D01*
X73780000Y34010000D01*
X74670000Y33880000D01*
X75230000Y33820000D01*
X76180000Y33750000D01*
X76980000Y33710000D01*
X77950000Y33690000D01*
X78950000Y33700000D01*
X80150000Y33730000D01*
X81080000Y33770000D01*
X82020000Y33810000D01*
X82450000Y33840000D01*
X83080000Y33870000D01*
X62110000Y29450000D01*
X65280000Y33290000D01*
X60570000Y29260000D01*
X53460000Y28380000D01*
X57170000Y31910000D01*
X50870000Y28170000D01*
X40040000Y26430000D01*
X39880000Y26750000D01*
X39780000Y26910000D01*
X39670000Y27070000D01*
X39560000Y27210000D01*
X39470000Y27320000D01*
X39330000Y27460000D01*
X39240000Y27540000D01*
X39170000Y27600000D01*
X39120000Y27640000D01*
X39080000Y27670000D01*
X39460000Y28050000D01*
X39720000Y28320000D01*
X40040000Y28640000D01*
X40390000Y29000000D01*
X40760000Y29390000D01*
X41280000Y29960000D01*
X41630000Y30360000D01*
X41980000Y30770000D01*
X42410000Y31310000D01*
X42820000Y31830000D01*
X43250000Y32410000D01*
X43630000Y32960000D01*
X44010000Y33550000D01*
X44290000Y34000000D01*
X44630000Y34590000D01*
X44900000Y35090000D01*
X45160000Y35590000D01*
X45300000Y35860000D01*
X45400000Y36080000D01*
X45870000Y35750000D01*
X46370000Y35430000D01*
X46730000Y35240000D01*
X47110000Y35080000D01*
X47390000Y34990000D01*
X47690000Y34920000D01*
X48070000Y34870000D01*
X48430000Y34860000D01*
X48740000Y34880000D01*
X48980000Y34910000D01*
X49410000Y34990000D01*
X49740000Y35080000D01*
X50180000Y35230000D01*
X50690000Y35420000D01*
X51190000Y35640000D01*
X51570000Y35830000D01*
X52080000Y36110000D01*
X52500000Y36380000D01*
X52830000Y36610000D01*
X53140000Y36840000D01*
X53500000Y37130000D01*
X53810000Y37400000D01*
X54190000Y37760000D01*
X54510000Y38090000D01*
X54780000Y38380000D01*
X55070000Y38730000D01*
X55560000Y38440000D01*
G37*
X55560000Y38440000D02*
X56230000Y38070000D01*
X56700000Y37830000D01*
X57290000Y37550000D01*
X57810000Y37320000D01*
X58580000Y37030000D01*
X59160000Y36850000D01*
X59630000Y36730000D01*
X60190000Y36620000D01*
X60750000Y36550000D01*
X61200000Y36530000D01*
X61600000Y36540000D01*
X62130000Y36590000D01*
X62740000Y36720000D01*
X63240000Y36890000D01*
X63610000Y37060000D01*
X63930000Y37240000D01*
X64250000Y37440000D01*
X64600000Y37720000D01*
X64860000Y37960000D01*
X65050000Y38150000D01*
X65250000Y38380000D01*
X65850000Y37800000D01*
X66090000Y37590000D01*
X66370000Y37340000D01*
X66610000Y37160000D01*
X67010000Y36840000D01*
X67310000Y36610000D01*
X67780000Y36300000D01*
X68190000Y36040000D01*
X68780000Y35700000D01*
X69420000Y35360000D01*
X70130000Y35040000D01*
X70930000Y34730000D01*
X71520000Y34540000D01*
X72210000Y34340000D01*
X72930000Y34170000D01*
X73780000Y34010000D01*
X74670000Y33880000D01*
X75230000Y33820000D01*
X76180000Y33750000D01*
X76980000Y33710000D01*
X77950000Y33690000D01*
X78950000Y33700000D01*
X80150000Y33730000D01*
X81080000Y33770000D01*
X82020000Y33810000D01*
X82450000Y33840000D01*
X83080000Y33870000D01*
X62110000Y29450000D01*
X65280000Y33290000D01*
X60570000Y29260000D01*
X53460000Y28380000D01*
X57170000Y31910000D01*
X50870000Y28170000D01*
X40040000Y26430000D01*
X39880000Y26750000D01*
X39780000Y26910000D01*
X39670000Y27070000D01*
X39560000Y27210000D01*
X39470000Y27320000D01*
X39330000Y27460000D01*
X39240000Y27540000D01*
X39170000Y27600000D01*
X39120000Y27640000D01*
X39080000Y27670000D01*
X39460000Y28050000D01*
X39720000Y28320000D01*
X40040000Y28640000D01*
X40390000Y29000000D01*
X40760000Y29390000D01*
X41280000Y29960000D01*
X41630000Y30360000D01*
X41980000Y30770000D01*
X42410000Y31310000D01*
X42820000Y31830000D01*
X43250000Y32410000D01*
X43630000Y32960000D01*
X44010000Y33550000D01*
X44290000Y34000000D01*
X44630000Y34590000D01*
X44900000Y35090000D01*
X45160000Y35590000D01*
X45300000Y35860000D01*
X45400000Y36080000D01*
X45870000Y35750000D01*
X46370000Y35430000D01*
X46730000Y35240000D01*
X47110000Y35080000D01*
X47390000Y34990000D01*
X47690000Y34920000D01*
X48070000Y34870000D01*
X48430000Y34860000D01*
X48740000Y34880000D01*
X48980000Y34910000D01*
X49410000Y34990000D01*
X49740000Y35080000D01*
X50180000Y35230000D01*
X50690000Y35420000D01*
X51190000Y35640000D01*
X51570000Y35830000D01*
X52080000Y36110000D01*
X52500000Y36380000D01*
X52830000Y36610000D01*
X53140000Y36840000D01*
X53500000Y37130000D01*
X53810000Y37400000D01*
X54190000Y37760000D01*
X54510000Y38090000D01*
X54780000Y38380000D01*
X55070000Y38730000D01*
X55560000Y38440000D01*
D11*
%TO.P,D3,1*%
%TO.N,GND*%
X30550000Y30610000D03*
D12*
%TO.P,D3,2*%
%TO.N,Net-(D3-Pad2)*%
X33090000Y30610000D03*
%TD*%
%TO.P,D1,2*%
%TO.N,Net-(D1-Pad2)*%
X30510000Y23690000D03*
D11*
%TO.P,D1,1*%
%TO.N,GND*%
X27970000Y23690000D03*
%TD*%
%TO.P,D2,1*%
%TO.N,GND*%
X35460000Y24740000D03*
D12*
%TO.P,D2,2*%
%TO.N,Net-(D2-Pad2)*%
X38000000Y24740000D03*
%TD*%
M02*
